<svg width="367" height="407" viewBox="0 0 367 407" fill="none" xmlns="http://www.w3.org/2000/svg">
<path d="M367 278.393C367 297.042 357.034 314.268 340.868 323.563L209.473 399.116C193.392 408.362 173.608 408.362 157.527 399.116L70.1069 348.849L98.1524 300.555C116.802 268.441 151.132 248.678 188.269 248.678H264.247L264.24 248.668H367V278.393ZM142.025 79.1243C160.665 111.435 160.614 151.244 141.891 183.506L51.9833 338.428L26.1321 323.563C9.96592 314.268 0 297.042 0 278.393V127.656C0 109.008 9.96581 91.7821 26.1319 82.4865L114.613 31.6092L142.025 79.1243ZM340.868 82.4865C357.034 91.7821 367 109.008 367 127.657V227.826H312.201C275.036 227.826 240.684 208.033 222.045 175.881L208.636 152.751L132.736 21.1882L157.527 6.93383C173.608 -2.3123 193.392 -2.31219 209.472 6.93414L340.868 82.4865Z" fill="white"/>
</svg>
